<svg width="499" height="415" viewBox="0 0 499 415" xmlns="http://www.w3.org/2000/svg"><title>varch-logo</title><g fill="none" fill-rule="evenodd"><text fill="#87CDDE" transform="rotate(159 26.332 183.46)" font-family="Helvetica" font-size="19.443"><tspan x="3.267" y="190.76">TM</tspan></text><path d="M296.523 414.233c2.796-43.966 3.82-72.453 8.785-115.865-14.582-7.799-32.244-16.655-58.719-24.465 26.236 1.753 45.158 6.002 60.227 11.95 6.732-54.443 19.516-133.06 47.86-285.426-45.244 51.27-82.032 85.873-120.01 107.111a108.496 108.496 0 0 1 10.726 23.16l.538 1.82c11.173 36.282 1.747 70.233-21.036 75.795-22.779 5.558-50.294-19.367-61.468-55.645a107.29 107.29 0 0 1-4.218-20.087c-42.73 5.621-92.443.134-158.522-13.258 17.658 16.446 33.481 31.3 48.57 45.444 18.467 6.447 38.713 16.109 75.262 21.651-23.298 1.627-40.798.35-55.169-2.822C223.037 328.093 238.55 348.938 296.53 414.233h-.007z" fill="#1793D1"/><path d="M126.23 237.11c111.688 78.475 157.646 156.518 168.879 175.063-72.618-80.75-72.728-82-168.88-175.063z" fill-opacity=".166" fill="#FFF"/><path d="M409.836 78.568c-8.562 0-17.367.62-26.474 1.828a222.81 222.81 0 0 0-27.46 5.063c-4.411 1.06-8.818 2.307-13.201 3.655l5.408 44.56-18.4-40.134c-.33.122-.656.228-.982.354a197.452 197.452 0 0 0-25.987 11.667 1233.648 1233.648 0 0 1-9.548 23.054 371.178 371.178 0 0 0-9.269 24.108c-.332.9-.5 1.851-.494 2.81 0 1.317.294 2.489.844 3.585.656 1.101 1.732 1.69 3.158 1.69 1.65 0 3.758-.396 6.393-1.06 2.632-.657 5.2-1.337 7.726-2.108l6.951-2.319c2.082-.766 3.283-1.124 3.72-1.124h.211c-1.253 13-2.47 26.003-3.652 39.01-1.206 13.4-2.372 26.84-3.582 40.346-1.206 13.4-2.411 26.643-3.51 39.713-.987 12.96-1.863 25.393-2.738 37.252 0 .33-.102.523-.212.63v.707c0 1.427.428 2.724 1.194 3.93.77 1.101 2.23 1.915 4.426 2.465 4.497.987 10.058 2.095 16.644 3.302a407.23 407.23 0 0 0 20.226 3.443c6.912 1.101 13.475 2.045 19.732 2.811 6.252.77 11.228 1.128 14.96 1.128 10.202 0 20.35-1.14 30.334-3.447 10.094-2.194 19.657-5.283 28.655-9.348a133.832 133.832 0 0 0 7.933-4.005l-16.083-32.26 26.196 26.218a135.145 135.145 0 0 0 7.093-4.992c7.792-5.822 14.488-12.264 20.085-19.403a88.935 88.935 0 0 0 13.341-23.404 72.336 72.336 0 0 0 4.917-26.498c0-6.041-.781-11.147-2.317-15.322a35.817 35.817 0 0 0-6.743-11.529 62.96 62.96 0 0 0-10.812-9.768c-4.171-3.184-8.92-6.698-14.186-10.543a183.782 183.782 0 0 0 11.374-8.714 84.93 84.93 0 0 0 10.325-10.547c3.181-3.84 5.82-7.846 7.796-12.016a30.022 30.022 0 0 0 2.945-13.003c0-10.433-2.34-19.513-6.951-27.202-4.497-7.799-10.64-14.206-18.538-19.26-7.791-5.162-17.025-9.002-27.668-11.526-10.533-2.528-21.82-3.797-33.78-3.797zm-.141 53.066c7.352 0 12.945 2.41 16.786 7.24 3.95 4.725 5.899 11.589 5.899 20.598 0 3.184-.974 6.109-2.95 8.852a35.566 35.566 0 0 1-7.376 7.241 64.725 64.725 0 0 1-9.76 5.621c-3.4 1.651-6.519 3.05-9.48 4.151l-6.952 11.034c-2.42 3.883-4.83 7.772-7.234 11.667-1.755 2.857-2.67 5.039-2.67 6.466 0 1.32.263 2.358.706 3.235.436.876 1.414 1.466 2.946 1.686 1.426.22 3.507.543 6.252.983 2.852.33 5.907.849 9.198 1.615 3.402.66 6.881 1.604 10.396 2.815 3.511 1.1 6.697 2.527 9.548 4.285 2.965 1.65 5.369 3.698 7.234 6.116 1.866 2.307 2.808 5.008 2.808 8.082 0 5.055-1.103 9.544-3.299 13.498a34.492 34.492 0 0 1-8.707 10.051c-3.62 2.854-7.886 5.26-12.713 7.237a107.728 107.728 0 0 1-14.61 4.638 120.44 120.44 0 0 1-15.305 2.603c-4.716.437-9.45.672-14.186.703.766-8.895 1.548-19.053 2.317-30.366.77-11.309 1.681-23.184 2.671-35.703 1.096-12.63 2.294-25.582 3.72-38.868a746.07 746.07 0 0 1 5.266-39.572c11.303-3.954 21.157-5.904 29.495-5.904v-.004z" fill="#4D4D4D"/></g></svg>